<svg xmlns="http://www.w3.org/2000/svg" width="67.124" height="58.734" viewBox="0 0 67.124 58.734"><defs><style>.a{fill:#fff;}</style></defs><g transform="translate(0 -64)"><path class="a" d="M60.831,72.391H48.665L44.889,66.1A3.737,3.737,0,0,0,41.533,64H25.591a3.737,3.737,0,0,0-3.356,2.1l-3.776,6.293H6.293A6.452,6.452,0,0,0,0,78.683v37.757a6.452,6.452,0,0,0,6.293,6.293H60.831a6.452,6.452,0,0,0,6.293-6.293V78.683A6.452,6.452,0,0,0,60.831,72.391ZM33.562,114.343A18.879,18.879,0,1,1,52.441,95.464,18.8,18.8,0,0,1,33.562,114.343Z"/><path class="a" d="M332.586,364.586m-12.586,0A12.586,12.586,0,1,0,332.586,352,12.586,12.586,0,0,0,320,364.586Z" transform="translate(-299.024 -269.121)"/></g></svg>