<svg xmlns="http://www.w3.org/2000/svg" width="26" height="26" viewBox="0 0 26 26"><defs><style>.a{fill:none;}.b{fill:#afebd3;}.c{fill:#00a796;stroke:#00a796;stroke-width:0.1px;}</style></defs><g transform="translate(-225 -742)"><rect class="a" width="26" height="26" transform="translate(225 742)"/><path class="b" d="M656.664,753.238a17.564,17.564,0,0,0-2.759,4.9,16.68,16.68,0,0,0-.675,5.492l2.987,1.854,9.681.584,4.737-1.957.858-3.879-.858-3.055-1.854-3.6-6.236-2.393-3.788.23Z" transform="translate(-424)"/><path class="b" d="M656.286,748.525a32.725,32.725,0,0,0,4.5,1.613l5.561-1,2.849-2.163s-.866-2.265-4.5-.308c-1.2-.137-2.375-3.751-4.641.094-1.133.481-4.532-2.255-5.219-1.156S655.427,747.976,656.286,748.525Z" transform="translate(-423.724 1.039)"/><g transform="translate(111.02 703.75)"><path class="c" d="M200.516,48.058l-.073,0h-.1a9.846,9.846,0,0,1-4.834-1.705c-1.73-1.115-2.763-2.38-2.763-3.384a1.283,1.283,0,0,1,.609-1.109,2.388,2.388,0,0,1,1.3-.318,8.219,8.219,0,0,1,3.168.8,2.711,2.711,0,0,1,5.387,0,8.22,8.22,0,0,1,3.168-.8,2.389,2.389,0,0,1,1.3.318,1.283,1.283,0,0,1,.609,1.109c0,1-1.033,2.269-2.763,3.384a9.846,9.846,0,0,1-4.834,1.705h-.1l-.074,0Zm-.069-1.094h.247a8.867,8.867,0,0,0,4.243-1.531c1.66-1.07,2.262-2.061,2.262-2.467a.2.2,0,0,0-.108-.191,1.328,1.328,0,0,0-.713-.144,7.928,7.928,0,0,0-3.287.98.546.546,0,0,1-.788-.391c-.222-1.265-.974-2.183-1.787-2.183s-1.565.918-1.787,2.183a.546.546,0,0,1-.788.391,7.927,7.927,0,0,0-3.287-.98,1.328,1.328,0,0,0-.713.144.2.2,0,0,0-.108.191c0,.405.6,1.4,2.262,2.467a8.866,8.866,0,0,0,4.243,1.531h.109Z" transform="translate(-73.048)"/><path class="c" d="M127.593,345.558h-.249c-2.468,0-4.8,0-6.527-.71-1.985-.815-2.95-2.49-2.95-5.12a9.617,9.617,0,1,1,19.2,0c0,2.63-.965,4.3-2.95,5.12-1.728.71-4.059.71-6.527.71Zm-.187-1.092h.187c2.357,0,4.583,0,6.112-.628,1.572-.646,2.273-1.913,2.273-4.11a8.526,8.526,0,1,0-17.019,0c0,2.2.7,3.464,2.273,4.11,1.528.628,3.755.628,6.112.628h.062Z" transform="translate(0 -282.564)"/><path class="c" d="M388.014,583.372H382.8a.546.546,0,1,1,0-1.092h5.211a.546.546,0,1,1,0,1.092Zm0,2.439H382.8a.546.546,0,1,1,0-1.092h5.211a.546.546,0,1,1,0,1.092Z" transform="translate(-257.94 -529.104)"/><path class="c" d="M489.6,590.075a.546.546,0,0,1-.546-.546v-5.09a.546.546,0,0,1,1.092,0v5.09A.546.546,0,0,1,489.6,590.075Z" transform="translate(-362.134 -530.677)"/><path class="c" d="M392.68,493.995a.544.544,0,0,1-.347-.125l-2.443-2.017a.546.546,0,1,1,.7-.842l2.443,2.017a.546.546,0,0,1-.348.967Z" transform="translate(-265.193 -439.939)"/><path class="c" d="M488.827,493.994a.546.546,0,0,1-.348-.967l2.443-2.017a.546.546,0,1,1,.7.842l-2.443,2.017A.544.544,0,0,1,488.827,493.994Z" transform="translate(-361.377 -439.939)"/></g></g></svg>