<svg xmlns="http://www.w3.org/2000/svg" xmlns:xlink="http://www.w3.org/1999/xlink" width="26" height="26" viewBox="0 0 26 26"><defs><style>.a{fill:none;}.b{clip-path:url(#a);}.c{fill:#272636;stroke:#000;stroke-width:0.1px;}</style><clipPath id="a"><rect class="a" width="26" height="26" transform="translate(227 742)"/></clipPath></defs><g class="b" transform="translate(-227 -742)"><g transform="translate(112.393 703.416)"><path class="c" d="M200.629,48.175l-.074,0h-.106a9.988,9.988,0,0,1-4.9-1.73c-1.755-1.131-2.8-2.414-2.8-3.433a1.3,1.3,0,0,1,.618-1.125,2.423,2.423,0,0,1,1.324-.323,8.338,8.338,0,0,1,3.214.815,2.751,2.751,0,0,1,5.465,0,8.339,8.339,0,0,1,3.214-.815,2.423,2.423,0,0,1,1.324.323,1.3,1.3,0,0,1,.617,1.125c0,1.019-1.048,2.3-2.8,3.433a9.989,9.989,0,0,1-4.9,1.73H200.7l-.075,0Zm-.07-1.11h.158l.093,0a8.995,8.995,0,0,0,4.3-1.554c1.684-1.085,2.295-2.091,2.295-2.5a.2.2,0,0,0-.11-.194,1.347,1.347,0,0,0-.724-.146,8.042,8.042,0,0,0-3.335.994.554.554,0,0,1-.8-.4c-.225-1.283-.988-2.214-1.813-2.214s-1.588.931-1.813,2.214a.554.554,0,0,1-.8.4,8.042,8.042,0,0,0-3.335-.994,1.347,1.347,0,0,0-.723.146.2.2,0,0,0-.11.194c0,.411.611,1.417,2.3,2.5a8.994,8.994,0,0,0,4.3,1.554l.093,0h.018Z" transform="translate(-73.022 0)"/><path class="c" d="M127.733,345.79h-.253c-2.5,0-4.869,0-6.621-.72-2.014-.827-2.993-2.526-2.993-5.194,0-5.68,4.37-10.3,9.741-10.3s9.741,4.621,9.741,10.3c0,2.668-.979,4.367-2.993,5.194-1.753.72-4.118.72-6.621.72Zm-.19-1.108h.19c2.391,0,4.65,0,6.2-.637,1.595-.655,2.306-1.941,2.306-4.169,0-5.069-3.873-9.193-8.633-9.193s-8.633,4.124-8.633,9.193c0,2.229.711,3.515,2.306,4.17,1.55.637,3.809.637,6.2.637h.063Z" transform="translate(0 -282.462)"/><path class="c" d="M388.1,583.388h-5.287a.554.554,0,1,1,0-1.108H388.1a.554.554,0,1,1,0,1.108Zm0,2.474h-5.287a.554.554,0,1,1,0-1.108H388.1a.554.554,0,1,1,0,1.108Z" transform="translate(-257.847 -528.912)"/><path class="c" d="M489.61,590.164a.554.554,0,0,1-.554-.554v-5.164a.554.554,0,0,1,1.108,0v5.164A.554.554,0,0,1,489.61,590.164Z" transform="translate(-362.003 -530.484)"/><path class="c" d="M392.723,494.04a.552.552,0,0,1-.352-.127l-2.478-2.046a.554.554,0,1,1,.705-.854l2.478,2.046a.554.554,0,0,1-.353.981Z" transform="translate(-265.097 -439.78)"/><path class="c" d="M488.834,494.039a.554.554,0,0,1-.353-.981l2.478-2.046a.554.554,0,1,1,.705.854l-2.478,2.046A.551.551,0,0,1,488.834,494.039Z" transform="translate(-361.247 -439.779)"/></g></g></svg>