<svg xmlns="http://www.w3.org/2000/svg" width="28.664" height="34.79" viewBox="0 0 28.664 34.79"><defs><style>.a{fill:#fff;}</style></defs><g transform="translate(-189.312 -113.792)"><path class="a" d="M190.409,125.857a8.033,8.033,0,0,0,.8.989,12.989,12.989,0,0,0,4.734,3.018,19.919,19.919,0,0,0,2.108.682,22.272,22.272,0,0,0,4.211.642c.449.028.909.04,1.375.04s.926-.011,1.375-.04a22.273,22.273,0,0,0,4.211-.642,18.688,18.688,0,0,0,2.108-.682,12.963,12.963,0,0,0,4.734-3.018,7.626,7.626,0,0,0,.8-.989,6.684,6.684,0,0,0,.619-1.108,5.527,5.527,0,0,0,.483-2.239c0-4.813-6.416-8.717-14.326-8.717s-14.326,3.9-14.326,8.717a5.474,5.474,0,0,0,.483,2.239,5.89,5.89,0,0,0,.608,1.108Zm13.23,16.531c-5.808,0-10.837-1.87-13.843-4.768a5.574,5.574,0,0,0-.483,2.245c0,4.813,6.416,8.717,14.326,8.717s14.326-3.9,14.326-8.717a5.52,5.52,0,0,0-.483-2.245C214.475,140.518,209.446,142.388,203.638,142.388Z"/><path class="a" d="M214.39,457.157c-.438.239-.9.466-1.375.676-.54.239-1.1.455-1.682.648a25.174,25.174,0,0,1-15.389,0,17.48,17.48,0,0,1-1.682-.648c-.477-.2-.938-.438-1.375-.676a14.213,14.213,0,0,1-3.1-2.245,5.487,5.487,0,0,0,.006,4.489,6.3,6.3,0,0,0,.619,1.108,8.038,8.038,0,0,0,.8.989c2.472,2.62,7.109,4.381,12.428,4.381s9.956-1.762,12.428-4.381a7.629,7.629,0,0,0,.8-.989,6.684,6.684,0,0,0,.619-1.108,5.487,5.487,0,0,0,.006-4.489A14.571,14.571,0,0,1,214.39,457.157Z" transform="translate(0 -325.975)"/></g></svg>