<svg xmlns="http://www.w3.org/2000/svg" width="26" height="26" viewBox="0 0 26 26"><defs><style>.a{fill:none;}.b{fill:white;stroke:#272636;stroke-width:0.3px;}</style></defs><g transform="translate(-124 -741)"><rect class="a" width="26" height="26" transform="translate(124 741)"/><g transform="translate(0.372 -0.323)"><path class="b" d="M127.545,757.642l-1.354-2.309v-3.3l2.464-2.72,2.624-.544,1.248-2.72,2.976-2.144,4.576.864,1.984,1.92.48,1.664,4.288,1.856.256,3.04-.256,2.08-.864,2.016-1.952,1.28-1.473,1.511-11.705-.015Z" transform="translate(-0.038 -0.039)"/><path class="c" d="M69.841,80.121V81.79a6.175,6.175,0,0,1-4.159-1.956A6.241,6.241,0,0,1,64,75.557a6.163,6.163,0,0,1,1.46-4.042,6.292,6.292,0,0,1,3.728-2.138,6.821,6.821,0,0,1,2.2-3.521,6.716,6.716,0,0,1,7.889-.509,6.729,6.729,0,0,1,2.633,3.221,6.7,6.7,0,0,1,3.977,2.386,6.745,6.745,0,0,1-.262,8.67,6.644,6.644,0,0,1-4.105,2.138V80.068a4.993,4.993,0,0,0,3.024-8.111A5.088,5.088,0,0,0,81.6,70.21l-.913-.157-.339-.886a5.09,5.09,0,0,0-1.969-2.413,4.825,4.825,0,0,0-3.011-.768,4.906,4.906,0,0,0-2.907,1.133,4.966,4.966,0,0,0-1.656,2.672l-.262,1.043-1.068.184a4.644,4.644,0,0,0-2.737,1.577,4.562,4.562,0,0,0-1.07,2.961,4.534,4.534,0,0,0,4.174,4.563Zm3.338,1.694a.867.867,0,0,1-.731-1.252l3.338-5.841a.818.818,0,0,1,.731-.417.794.794,0,0,1,.718.417.783.783,0,0,1,.013.834l-2.635,4.589h3.573a.865.865,0,0,1,.729,1.252l-3.338,5.841a.788.788,0,0,1-.507.392.875.875,0,0,1-.639-.092.741.741,0,0,1-.391-.5.918.918,0,0,1,.077-.639l2.633-4.589Z" transform="translate(60.958 678.345)"/></g></g></svg>