<?xml version="1.0" standalone="no"?><!DOCTYPE svg PUBLIC "-//W3C//DTD SVG 1.1//EN" "http://www.w3.org/Graphics/SVG/1.1/DTD/svg11.dtd"><svg t="1691294351842" class="icon" viewBox="0 0 1024 1024" version="1.1" xmlns="http://www.w3.org/2000/svg" p-id="6380" xmlns:xlink="http://www.w3.org/1999/xlink" width="200" height="200"><path d="M512 1024c-281.6 0-512-230.4-512-512s230.4-512 512-512 512 230.4 512 512-230.4 512-512 512zM512 128C300.8 128 128 300.8 128 512s172.8 384 384 384 384-172.8 384-384-172.8-384-384-384z m44.8 620.8c-12.8 12.8-25.6 19.2-44.8 19.2-19.2 0-32-6.4-44.8-19.2l-128-140.8c-25.6-25.6-25.6-70.4 0-96 25.6-25.6 64-25.6 89.6 0l19.2 25.6V326.4C448 288 480 256 512 256s64 32 64 70.4v217.6l25.6-32c25.6-25.6 64-25.6 89.6 0 25.6 25.6 25.6 70.4 0 96l-134.4 140.8z" fill="#00bfbf" p-id="6381"></path></svg>