<svg xmlns="http://www.w3.org/2000/svg" width="10" height="10" viewBox="0 0 10 10"><defs><style>.a{fill:#0093df;}</style></defs><path class="a" d="M69,64a5,5,0,1,0,5,5A5.006,5.006,0,0,0,69,64Zm0,8.575a.536.536,0,1,1,.536-.536A.536.536,0,0,1,69,72.575Zm.989-3.651c-.311.31-.631.631-.631.919v.6a.357.357,0,1,1-.714,0v-.6a2.172,2.172,0,0,1,.841-1.425c.289-.289.588-.588.588-.826A1.077,1.077,0,0,0,69,66.513a1.052,1.052,0,0,0-1.071,1.055.357.357,0,0,1-.714,0,1.786,1.786,0,0,1,3.571.024A2.034,2.034,0,0,1,69.989,68.924Z" transform="translate(-64 -64)"/></svg>