<svg xmlns="http://www.w3.org/2000/svg" width="26" height="26" viewBox="0 0 26 26"><defs><style>.a{fill:none;}.b{stroke:#000;}.b,.c{stroke-width:0.1px;}.c{fill:#fff;stroke:#00a796;}</style></defs><g transform="translate(-22 -742)"><rect class="a" width="26" height="26" transform="translate(22 742)"/><g transform="translate(-64.005 574.975)"><path class="b" d="M97.626,189.584H88.448a1.17,1.17,0,0,1-1.17-1.281l1.644-16.378a1.17,1.17,0,0,1,1.17-1.053h3.667a1.17,1.17,0,0,1,1.17.948l3.86,16.378a1.132,1.132,0,0,1-1.164,1.386Zm-7.534-17.547-1.644,16.378h9.177l-3.86-16.378Z" transform="translate(0 -0.201)"/><path class="c" d="M453.413,191.988h7.978a.585.585,0,0,1,.585.456l1.351,5.849a.585.585,0,0,1-.585.714h-7.984a.585.585,0,0,1-.585-.456l-1.351-5.849a.585.585,0,0,1,.591-.714Z" transform="translate(-355.513 -20.736)"/><path class="b" d="M442.472,178.855h-7.978a1.17,1.17,0,0,1-1.141-.907L432,172.1a1.17,1.17,0,0,1,1.146-1.433h7.978a1.17,1.17,0,0,1,1.141.907l1.351,5.849a1.17,1.17,0,0,1-1.146,1.433Zm-9.324-7.019,1.351,5.849h7.972l-1.345-5.849Z" transform="translate(-335.249 0)"/><path class="b" d="M527.9,542.51h-7.978a1.17,1.17,0,0,1-1.141-.907l-1.351-6.434a1.17,1.17,0,0,1,1.17-1.421h7.955a1.17,1.17,0,0,1,1.141.907l1.351,6.434a1.17,1.17,0,0,1-1.17,1.421Zm-1.351-7.6h-7.978l1.351,6.434H527.9Z" transform="translate(-418.333 -353.126)"/></g></g></svg>