<svg xmlns="http://www.w3.org/2000/svg" width="26" height="26" viewBox="0 0 26 26"><defs><style>.a{fill:none;}.b{fill:rgba(8,191,118,0.35);}.b,.c,.d{stroke:#00a796;stroke-width:0.1px;}.c{fill:#00a796;}.d{fill:#fff;}</style></defs><g transform="translate(-86.06 -167.375)"><rect class="a" width="26" height="26" transform="translate(86.06 167.375)"/><path class="b" d="M110.935,192h3.685a.588.588,0,0,1,.588.476l3.884,16.455a.588.588,0,0,1-.588.7h-9.22a.588.588,0,0,1-.588-.646l1.651-16.455a.588.588,0,0,1,.588-.529Z" transform="translate(-20.83 -20.743)"/><path class="c" d="M97.674,189.672h-9.22a1.175,1.175,0,0,1-1.175-1.287l1.651-16.455a1.175,1.175,0,0,1,1.175-1.058H93.79a1.175,1.175,0,0,1,1.175.952l3.879,16.455a1.137,1.137,0,0,1-1.169,1.393Zm-7.569-17.63L88.454,188.5h9.22L93.8,172.043Z" transform="translate(0 -0.201)"/><path class="d" d="M453.416,191.988h8.016a.588.588,0,0,1,.588.458l1.358,5.877a.588.588,0,0,1-.588.717h-8.022a.588.588,0,0,1-.588-.458l-1.358-5.877a.588.588,0,0,1,.594-.717Z" transform="translate(-355.466 -20.734)"/><path class="c" d="M442.522,178.894h-8.016a1.175,1.175,0,0,1-1.146-.911L432,172.106a1.175,1.175,0,0,1,1.152-1.44h8.016a1.175,1.175,0,0,1,1.146.911l1.357,5.877a1.175,1.175,0,0,1-1.152,1.44Zm-9.367-7.052,1.358,5.877h8.01l-1.352-5.877Z" transform="translate(-335.204)"/><path class="b" d="M560.535,256h3.573a.27.27,0,0,1,.253.229l.588,2.938a.288.288,0,0,1-.253.358h-3.555a.27.27,0,0,1-.253-.229l-.588-2.938a.288.288,0,0,1,.235-.358Z" transform="translate(-459.987 -82.983)"/><path class="b" d="M538.749,554.655h8.016a.588.588,0,0,1,.588.458l1.358,6.464a.588.588,0,0,1-.588.717H540.1a.588.588,0,0,1-.588-.458l-1.357-6.464a.588.588,0,0,1,.594-.717Z" transform="translate(-438.448 -373.41)"/><path class="c" d="M527.946,542.551H519.93a1.175,1.175,0,0,1-1.146-.911l-1.358-6.464a1.175,1.175,0,0,1,1.175-1.428h7.992a1.175,1.175,0,0,1,1.146.911l1.357,6.464a1.175,1.175,0,0,1-1.175,1.428Zm-1.357-7.64h-8.016l1.358,6.464h8.016Z" transform="translate(-418.278 -353.079)"/></g></svg>