<svg xmlns="http://www.w3.org/2000/svg" width="26" height="26" viewBox="0 0 26 26"><defs><style>.a{fill:none;}.b{fill:#231815;stroke:#272636;stroke-width:0.3px;}</style></defs><g transform="translate(-111.1 0.724)"><rect class="a" width="26" height="26" transform="translate(111.1 -0.724)"/><path class="b" d="M220.054,13.807A6.5,6.5,0,1,0,213.5,7.3,6.528,6.528,0,0,0,220.054,13.807Zm0-11.935A5.432,5.432,0,1,1,214.6,7.3,5.449,5.449,0,0,1,220.054,1.872Z" transform="translate(-95.954 0)"/><path class="b" d="M124.1,617.4a8.8,8.8,0,0,0-8.7,8.864l1.118,0a7.655,7.655,0,0,1,7.582-7.7,7.489,7.489,0,0,1,7.582,7.685H132.8A8.678,8.678,0,0,0,124.1,617.4Z" transform="translate(0 -603.111)"/><path class="b" d="M390.145,424.737l-.333-.437a4.158,4.158,0,0,1-4.78.011l-.333.44a4.663,4.663,0,0,0,5.445-.013Z" transform="translate(-263.409 -414.236)"/></g></svg>