<svg xmlns="http://www.w3.org/2000/svg" width="14.3" height="15.884" viewBox="0 0 14.3 15.884"><defs><style>.a{fill:#fff;}</style></defs><path class="a" d="M136.748,96.539a2.778,2.778,0,1,1,.8-.886l.984.984-.843.843-.94-.94Zm-7.922-7.926,5.959-1.806a1.192,1.192,0,0,1,.691,0l5.959,1.806a1.192,1.192,0,0,1,.846,1.14v6.51c0,2.976-2.395,5.081-6.993,6.335l-.157.043-.157-.043c-4.6-1.254-6.993-3.359-6.993-6.335v-6.51a1.192,1.192,0,0,1,.846-1.14Zm.346,7.65c0,2.291,1.925,4.012,5.959,5.142,4.033-1.13,5.959-2.851,5.959-5.142v-6.51l-5.959-1.806-5.959,1.806Zm5.959-.4a1.589,1.589,0,1,0-1.589-1.589A1.589,1.589,0,0,0,135.13,95.867Z" transform="translate(-127.98 -86.757)"/></svg>