<svg xmlns="http://www.w3.org/2000/svg" width="36.239" height="30.901" viewBox="0 0 36.239 30.901"><defs><style>.a{fill:#ef7c12;}.b{fill:#1b1918;}.c{fill:#c4c6c7;}.d{fill:#fff;}.e{fill:#050404;}.f{fill:#fcfcfc;}</style></defs><path class="a" d="M29.7,35.892H64.322V65.1H29.7Z" transform="translate(-28.805 -34.809)"/><path class="b" d="M2.262,0H33.975a2.269,2.269,0,0,1,2.264,2.262V28.639A2.27,2.27,0,0,1,33.975,30.9H2.262A2.27,2.27,0,0,1,0,28.639V2.262A2.269,2.269,0,0,1,2.262,0ZM12.709,22.076v7.016H33.975a.451.451,0,0,0,.318-.135.446.446,0,0,0,.135-.318V22.076H12.709Zm-1.436,7.016V22.076H1.809v6.563a.46.46,0,0,0,.453.453h9.01ZM21.967,1.809v18.55H34.428V2.262a.445.445,0,0,0-.135-.318.451.451,0,0,0-.318-.135H21.967Zm-1.716,18.55V1.809H2.262a.46.46,0,0,0-.453.453v18.1H20.251Zm0,0"/><path class="c" d="M60.412,59.962H78.4v18.55H59.96v-18.1A.453.453,0,0,1,60.412,59.962Zm0,0" transform="translate(-58.151 -58.152)"/><path class="d" d="M136.016,764.1v.644h-.648v.222h.535l.153,2.314c.015.121.054.182.115.182v.6h-.314q-.307,0-.353-.491l-.136-2.235v3.37h-.6v-3.238l-.109,2.44a.7.7,0,0,1-.125.427.378.378,0,0,1-.3.149h-.222V767.9h.023c.06,0,.092-.076.1-.228l.1-2.713h.535v-.222h-.713V764.1h.713v-.514h.6v.514Zm.132-.445h1.38l-.132,1.489c-.023.254-.179.381-.466.381h-.85v-.558h.144l-.121-.552h.537l.107.518a.118.118,0,0,0,.023-.075l.092-.65h-.713v-.553Zm3.027-.023v.575h-.821l.063.673a.083.083,0,0,0,.052.075l.132-.541h.529l-.132.552h.155v.558h-.98a.362.362,0,0,1-.4-.381l-.086-1.511h1.488Zm-.023,2.046v.559h-3.073v-.559Zm-1.8.736h1.739v.8q0,.422-.627.422h-2.222v-1.225Zm0,.711h.736c.164,0,.245-.015.245-.044v-.154h-1.38v.2h.4Zm-.98.713h.782l.119.336h.581l.1-.336h.78l-.1.336h.587v.531h-3.272v-.531h.546Zm0,0" transform="translate(-129.967 -740.541)"/><path class="e" d="M138.235,767.713H134.9v-.594h.532l-.125-.336h.85l.119.336h.535l.1-.336h.846l-.1.336h.577Zm-3.272-.063h3.208v-.468h-.6l.1-.336h-.714l-.1.336h-.628l-.119-.336H135.4l.125.336h-.56v.468Zm-.581.063h-.663v-1.844l-.045,1.015a.721.721,0,0,1-.133.446.409.409,0,0,1-.325.16h-.254v-.639h.055c.037,0,.061-.072.065-.2l.1-2.744h.534v-.159h-.713v-.707h.713v-.514h.663v.514h.648v.707h-.648v.159h.533l.155,2.344c.009.069.03.152.083.152h.032v.663h-.345c-.223,0-.353-.175-.385-.52l-.073-1.2v2.359Zm-.6-.063h.536v-3.338l.063,0,.136,2.235c.029.31.134.461.322.461h.282v-.54c-.061-.017-.1-.086-.114-.206l-.151-2.286h-.537v-.285h.648v-.581h-.648v-.514h-.536v.514h-.713v.581h.713v.285h-.536l-.1,2.683c0,.062-.008.249-.119.258v.512h.19a.344.344,0,0,0,.277-.137.672.672,0,0,0,.118-.408l.109-2.44h.063Zm3.662-1H135.19v-1.289H138.1v.835C138.1,766.494,137.881,766.647,137.444,766.647Zm-2.191-.063h2.191c.4,0,.6-.128.6-.39v-.771h-2.786v1.162Zm1.814-.451H135.9v-.262h1.443v.186C137.344,766.112,137.27,766.133,137.068,766.133Zm-1.1-.063h1.1a.583.583,0,0,0,.213-.02v-.115h-1.316Zm2.2-.825H135.03v-.622h3.136Zm-3.073-.063H138.1v-.5h-3.009Zm3.073-.649h-1.012a.392.392,0,0,1-.431-.41l-.088-1.545h1.554v.639h-.818l.06.638a.086.086,0,0,0,0,.015l.124-.51h.594l-.132.552h.146v.622ZM136.7,762.64l.084,1.478a.331.331,0,0,0,.367.351h.949v-.495h-.163l.132-.552h-.464l-.134.553-.034-.013a.113.113,0,0,1-.072-.1l-.066-.708h.824v-.512H136.7Zm-.791,1.892h-.882v-.622h.136l-.121-.552h.6l.083.4.077-.544H135.1V762.6h1.446l-.135,1.523c-.025.272-.192.41-.5.41Zm-.819-.064h.819c.271,0,.413-.115.435-.352l.128-1.454h-1.313v.489h.717l-.1.686a.143.143,0,0,1-.029.09l-.042.055-.116-.561h-.471l.121.552h-.151Z" transform="translate(-128.949 -739.52)"/><path d="M820.754,116.957q-.089,0-.178-.007h-5.845v-3.614h6.961v2.646a.918.918,0,0,1-.222.742.992.992,0,0,1-.717.233Zm-.483-.97.042,0a.146.146,0,0,0,.129-.058.37.37,0,0,0,.049-.214v-1.36h-4.527v1.629h4.307Zm.776-2.971a1.506,1.506,0,0,1-.2-.014H814.7v-1.056l1.423-1.821H817.6l-1.394,1.856h4.212c.053,0,.107-.018.107-.182v-.879h1.2v1.2a.867.867,0,0,1-.172.716.681.681,0,0,1-.5.176Z" transform="translate(-790.115 -106.803)"/><path class="d" d="M816.651,113.694l1.393-1.767h1.332l-1.394,1.856h4.3q.186.03.186-.236v-.825h1.084v1.149q.093.943-.805.825h-6.1Zm.031,4.948v-3.5h6.844v2.592q.061,1-1.053.913h-5.791Zm5.76-2.592H817.8v1.738h4.366q.279.03.279-.324Z" transform="translate(-792.007 -108.549)"/><path d="M814.685,413.841h-1.013v-.911l.066.007.046,0a.149.149,0,0,0,.109-.033.179.179,0,0,0,.028-.146v-5.715H820.7v5.768a.15.15,0,0,0,.021.123.218.218,0,0,0,.145.059l.052.006v.839h-.988a.476.476,0,0,1-.438-.236h-1.172c-.024,0-.051,0-.077,0-.314,0-.415-.153-.445-.281l-.5-.87-.443.737a.67.67,0,0,1-.64.411h-1.074a.389.389,0,0,1-.385.239l-.065,0Zm.935-1.139a.564.564,0,0,0,.067,0c.093,0,.114-.038.123-.079l.8-1.345-1.393-2.566V412.7Zm3.086-.207c.082.207.191.207.227.207h.436V408.66l-1.392,2.592Zm-2.245-4,.861,1.583.862-1.583h1.185v-.422h-4.156v.422h1.247Z" transform="translate(-789.118 -394.763)"/><path class="d" d="M815.624,414.737c.186.02.268-.059.248-.236v-5.655h6.658v5.714q-.032.206.217.236v.736h-.929a.421.421,0,0,1-.4-.236h-1.208q-.4.029-.465-.236l-.557-.972-.5.825a.616.616,0,0,1-.588.383h-1.115a.345.345,0,0,1-.4.236h-.96v-.8Zm5.7-.236v-4.742h-4.273V414.5h.465q.216.03.248-.118l.805-1.355-1.487-2.739h1.239l.9,1.649.9-1.649h1.146L819.8,413l.743,1.267c.062.157.155.236.279.236h.5Z" transform="translate(-791.011 -396.508)"/><path d="M487,788.91v-3.05h-.619v-.976h2.046v.976h-.619v3.05Z" transform="translate(-471.702 -761.198)"/><path class="f" d="M488.331,787.686v-.859h1.928v.859h-.619v3.05h-.69v-3.05Z" transform="translate(-473.595 -763.083)"/><path d="M562.069,789.217v-1.572l-.8-2.445h.894l.328,1.2.313-1.2h.876l-.8,2.444,0,1.573Z" transform="translate(-544.33 -761.505)"/><path class="f" d="M565.429,789.512v1.532h-.7v-1.513l-.78-2.387h.768l.375,1.365.357-1.365h.75Z" transform="translate(-546.935 -763.391)"/><path d="M651.246,788.91v-4.027h1.07c.638.007.961.466.964,1.366,0,.932-.314,1.4-.934,1.4h-.286v1.255Zm1.035-2.156c.143-.015.219-.185.221-.5-.012-.407-.188-.461-.319-.466h-.123v.971Z" transform="translate(-631.594 -761.198)"/><path class="f" d="M653.894,790.738h-.7v-3.91h1.011q.9.009.9,1.308,0,1.346-.875,1.346h-.345v1.256Zm0-2.038h.279q.277-.029.28-.563-.015-.511-.375-.525h-.184Z" transform="translate(-633.486 -763.084)"/><path d="M731.951,788.91v-1.485h-.531v1.485h-.814v-4.027h.814v1.508h.531v-1.508h.808v4.027Z" transform="translate(-708.559 -761.198)"/><path class="f" d="M733.254,790.738h-.7v-3.91h.7v1.508h.648v-1.508h.691v3.91H733.9v-1.485h-.648Z" transform="translate(-710.451 -763.084)"/><path d="M818.444,788.9a.978.978,0,0,1-.868-.543,3.074,3.074,0,0,1-.3-1.478,2.968,2.968,0,0,1,.313-1.459.952.952,0,0,1,.843-.537,1.008,1.008,0,0,1,.881.565,3.043,3.043,0,0,1,.295,1.451c-.012,1.3-.4,1.968-1.163,2Zm-.01-3.079c-.286,0-.343.588-.34,1.077.005.724.127,1.106.351,1.106s.349-.383.352-1.106c0-.491-.065-1.077-.36-1.077v-.059Z" transform="translate(-792.617 -761.198)"/><path class="f" d="M820.338,786.827a.946.946,0,0,1,.82.534,2.974,2.974,0,0,1,.287,1.422q-.017,1.9-1.107,1.943a.918.918,0,0,1-.818-.513,3,3,0,0,1-.288-1.449,2.89,2.89,0,0,1,.3-1.43A.891.891,0,0,1,820.338,786.827Zm-.012.821q-.4,0-.4,1.136.009,1.165.41,1.165t.411-1.165Q820.746,787.643,820.326,787.647Z" transform="translate(-794.51 -763.083)"/><path d="M908.068,788.9a.977.977,0,0,1-.868-.543,3.069,3.069,0,0,1-.3-1.478,2.967,2.967,0,0,1,.313-1.459.952.952,0,0,1,.843-.537,1.008,1.008,0,0,1,.881.565,3.044,3.044,0,0,1,.295,1.451c-.012,1.3-.4,1.968-1.163,2Zm-.01-3.079c-.286,0-.343.588-.34,1.077.005.724.127,1.106.351,1.106s.348-.383.352-1.106c0-.491-.065-1.077-.36-1.077v-.059Z" transform="translate(-879.537 -761.198)"/><path class="f" d="M909.961,786.827a.946.946,0,0,1,.82.534,2.971,2.971,0,0,1,.287,1.422q-.018,1.9-1.107,1.943a.918.918,0,0,1-.818-.513,3,3,0,0,1-.288-1.449,2.889,2.889,0,0,1,.3-1.43A.891.891,0,0,1,909.961,786.827Zm-.012.821q-.4,0-.4,1.136.009,1.165.41,1.165t.411-1.165Q910.369,787.643,909.949,787.647Z" transform="translate(-881.428 -763.083)"/><path d="M1000.866,788.91l-.622-1.893.015.635v1.258h-.778v-4.027h.774l.621,1.887-.014-.577v-1.311h.772v4.027Z" transform="translate(-969.32 -761.198)"/><path class="f" d="M1002.1,786.828l.732,2.224-.024-.974v-1.251h.655v3.909h-.666l-.732-2.229.024,1.031v1.2h-.661v-3.909Z" transform="translate(-971.211 -763.084)"/><path d="M304.15,289.16a1.925,1.925,0,1,0,2.367,1.346A1.926,1.926,0,0,0,304.15,289.16Zm1.005,3.656a1.867,1.867,0,1,1,1.305-2.294A1.863,1.863,0,0,1,305.155,292.816Z" transform="translate(-293.598 -280.367)"/><path d="M98.747,138.908l.091-.073a8.638,8.638,0,0,0-7.27-4.1,6.647,6.647,0,0,0-5.408,2.546,5.9,5.9,0,0,0-1.595,4.39l-.018.15.029-.008a5.782,5.782,0,0,0,.128.849l.057.22a5.564,5.564,0,0,0,3.342,4.051c-.034,0-.076,0-.127,0-.623,0-2.9-.245-6.044-3.4l-.093.07a8.57,8.57,0,0,0,7.4,4.371h0a6.621,6.621,0,0,0,5.231-2.378,5.878,5.878,0,0,0,1.634-5.841,4.942,4.942,0,0,0-3.328-3.835q.135-.011.27-.011c.927,0,2.9.389,5.7,3Zm-6.21-3.017a4.958,4.958,0,0,1,3.513,3.881,5.825,5.825,0,0,1-1.618,5.783c-3.255,3.961-9.96,2.7-12.541-1.979,3.807,3.822,6.321,3.4,6.321,3.4-.026,0,.037.032.161-.02a5.466,5.466,0,0,1-3.556-4.1c-.019-.072-.038-.147-.057-.219a5.813,5.813,0,0,1-.13-.885c-.008.022-.017.043-.025.065,0-.052.013-.1.018-.15a5.827,5.827,0,0,1,1.579-4.354c3.117-4.044,9.838-3.021,12.585,1.544-3.705-3.453-5.927-3.015-6.25-2.974Z" transform="translate(-79.37 -130.669)"/><path class="a" d="M94.185,137.778c.323-.042,2.545-.479,6.25,2.974-2.747-4.566-9.468-5.588-12.585-1.544a5.827,5.827,0,0,0-1.579,4.354c0,.051-.013.1-.018.15.007-.022.017-.043.025-.065a5.822,5.822,0,0,0,.13.885c.019.072.038.147.057.219a5.466,5.466,0,0,0,3.556,4.1c-.125.052-.187.021-.161.02,0,0-2.514.418-6.321-3.4,2.581,4.675,9.286,5.94,12.541,1.979a5.825,5.825,0,0,0,1.618-5.783,4.958,4.958,0,0,0-3.513-3.881Zm-1.595,7.284a1.925,1.925,0,1,1,1.346-2.367A1.926,1.926,0,0,1,92.59,145.062Z" transform="translate(-81.018 -132.555)"/></svg>